<?xml version="1.0" encoding="utf-8"?>
<!-- Generator: Adobe Illustrator 26.0.1, SVG Export Plug-In . SVG Version: 6.00 Build 0)  -->
<svg version="1.1" id="Vrstva_1" xmlns="http://www.w3.org/2000/svg" xmlns:xlink="http://www.w3.org/1999/xlink" x="0px" y="0px"
	 viewBox="0 0 841.89 595.28" style="enable-background:new 0 0 841.89 595.28;" xml:space="preserve">
<style type="text/css">
	.st0{fill:url(#SVGID_1_);}
	.st1{opacity:0.7;}
	.st2{fill:#020203;}
	.st3{fill:url(#SVGID_00000150823051857904506540000015804983999967714959_);}
	
		.st4{fill:url(#SVGID_00000022519459586687785430000009505850245787497605_);stroke:url(#SVGID_00000108285913865642408090000013533188988870325126_);stroke-width:2.8346;stroke-miterlimit:10;}
	.st5{fill:#F6F6F6;}
	.st6{font-family:'LexendDeca-Light';}
	.st7{font-size:36.8504px;}
	.st8{letter-spacing:-1;}
</style>
<linearGradient id="SVGID_1_" gradientUnits="userSpaceOnUse" x1="100.691" y1="368.9458" x2="251.0643" y2="218.5724">
	<stop  offset="0.2779" style="stop-color:#E62238"/>
	<stop  offset="0.7342" style="stop-color:#3357A4"/>
</linearGradient>
<circle class="st0" cx="175.88" cy="293.76" r="106.33"/>
<g>
	<g class="st1">
		<path class="st2" d="M80.23,300.19c0-3.97,0-7.95,0-11.92c0.07-0.07,0.19-0.13,0.19-0.2c0.07-3.22,0.55-6.4,1.07-9.57
			c0.65-3.99,1.56-7.92,2.73-11.79c2.06-6.83,4.82-13.36,8.35-19.57c2.71-4.77,5.77-9.3,9.25-13.52c2.93-3.56,6.07-6.93,9.52-10.02
			c3.25-2.92,6.64-5.65,10.23-8.13c5.17-3.57,10.63-6.63,16.41-9.1c4.56-1.94,9.22-3.58,14.03-4.77c3.64-0.9,7.29-1.64,11.01-2.15
			c2.42-0.33,4.86-0.7,7.28-0.76c6.16-0.14,12.33-0.19,18.46,0.78c3.32,0.53,6.63,1.08,9.9,1.88c3.78,0.92,7.45,2.14,11.1,3.46
			c5.49,1.99,10.67,4.61,15.66,7.59c5.47,3.27,10.54,7.13,15.25,11.43c4.06,3.71,7.77,7.78,11.09,12.17
			c2.63,3.47,5.01,7.1,7.19,10.88c2.78,4.82,5.05,9.85,6.95,15.06c2.49,6.85,4.07,13.91,4.94,21.16c0.45,3.76,0.63,7.54,0.67,11.31
			c0.04,3.07-0.09,6.17-0.45,9.25c-0.33,2.77-0.65,5.54-1.17,8.27c-1.04,5.41-2.45,10.74-4.41,15.91
			c-2.11,5.56-4.65,10.92-7.78,15.98c-2.68,4.34-5.66,8.48-9.03,12.35c-2.92,3.36-6.04,6.51-9.33,9.5
			c-3.67,3.33-7.61,6.3-11.77,8.97c-5.76,3.71-11.84,6.81-18.29,9.13c-5.74,2.07-11.61,3.67-17.65,4.65
			c-3.91,0.63-7.82,1.07-11.77,1.23c-1.56,0.06-3.12,0-4.68,0.02c-0.28,0-0.65-0.21-0.84,0.2c-0.35,0-0.71,0-1.06,0
			c-0.05-0.24-0.24-0.21-0.41-0.21c-2.33,0.05-4.63-0.2-6.94-0.4c-2.68-0.23-5.34-0.63-7.96-1.14c-5.31-1.04-10.5-2.5-15.58-4.39
			c-6.71-2.5-13.04-5.72-19.03-9.63c-3.44-2.24-6.69-4.76-9.83-7.42c-4.05-3.43-7.75-7.2-11.15-11.25
			c-3.3-3.93-6.23-8.14-8.85-12.57c-3.11-5.26-5.67-10.76-7.77-16.48c-1.75-4.76-3.06-9.65-3.99-14.63
			c-0.67-3.56-1.23-7.16-1.34-10.8C80.43,300.67,80.62,300.34,80.23,300.19z M175.08,350.44c9.86,0,19.73,0,29.59,0
			c0.28,0,0.57,0.03,0.85-0.01c0.92-0.13,1.16-0.59,0.77-1.45c-0.49-1.07-1.34-1.85-2.12-2.69c-1.98-2.15-3.26-4.73-4.5-7.34
			c-1.09-2.28-0.78-4.71-0.85-7.1c-0.03-1.04,0.24-1.98,0.65-2.89c0.55-1.21,0.89-1.34,2.21-0.92c2.77,0.87,5.32,2.27,8.12,3.11
			c2.15,0.65,4.43,0.56,6.54,1.36c0.42,0.16,1.01,0.01,1.54-0.1c1.02-0.2,1.85-0.73,2.72-1.18c1.03-0.52,1.94-1.22,1.9-2.62
			c-0.01-0.53,0.32-1.01,0.72-1.43c1.33-1.4,2.21-2.98,2.03-5.02c-0.08-0.93-0.56-1.68-0.89-2.5c-0.39-0.97-0.04-1.94,0.9-1.98
			c0.81-0.04,1.59-0.31,2.39-0.25c1.62,0.11,2.74-0.74,3.29-2.09c1.04-2.52,1.99-5.09,2.76-7.7c0.5-1.67,0.54-3.46-0.44-5.03
			c-1.16-1.86-2.64-3.4-4.51-4.62c-2.7-1.77-5.83-2.78-8.3-4.96c-1.29-1.14-1.48-1.43-0.23-2.62c0.84-0.8,1.23-1.69,1.19-2.87
			c-0.05-1.52-0.91-2.71-1.49-4.01c-0.48-1.09-1.28-1.94-2.42-2.46c-0.67-0.31-1.64-0.64-1.59-1.45c0.05-0.9,1.13-0.94,1.84-1.24
			c0.12-0.05,0.26-0.11,0.39-0.12c4.67-0.34,8.7,0.91,11.71,4.72c0.34,0.43,0.8,0.97,1.38,0.76c0.45-0.17,0.43-0.81,0.38-1.3
			c-0.04-0.44-0.01-0.87-0.16-1.33c-1-3.03-3.2-5.01-5.63-6.88c-3.28-2.52-6.98-3.46-11.03-3.43c-1.3,0.01-2.6,0-3.88,0.23
			c-0.41,0.07-0.79,0.26-1.22,0.21c-0.63-0.07-0.75-0.32-0.5-0.92c0.16-0.38,0.49-0.5,0.74-0.66c2.96-1.9,6.18-2.99,9.75-2.9
			c1.77,0.04,3.55,0.01,5.32,0c0.22,0,0.54,0.14,0.64-0.17c0.08-0.26,0.1-0.55-0.17-0.77c-0.24-0.2-0.42-0.5-0.68-0.66
			c-1.94-1.19-4.08-1.79-6.32-1.97c-0.55-0.04-1.07-0.24-1.7-0.13c-0.98,0.17-1.96,0.42-2.96,0.5c-2.06,0.17-3.96,0.74-5.69,1.89
			c-0.71,0.47-1.49,0.84-2.26,1.21c-0.52,0.25-1.07,0.24-1.22-0.45c-0.27-1.24-0.48-2.5-0.68-3.75c-0.26-1.66-0.93-3.1-2.23-4.19
			c-0.54-0.46-1.25-0.3-1.38,0.32c-0.07,0.33-0.06,0.64-0.46,0.72c-0.39,0.08-0.58-0.24-0.77-0.47c-0.75-0.95-1.33-1.99-1.56-3.2
			c-0.51-2.69-1.53-5.19-3.01-7.46c-1.3-1.99-2.76-3.87-4.21-5.76c-1.1-1.43-2.21-2.86-3.67-4c-1.96-1.53-4-2.91-6.15-4.16
			c-2.19-1.27-4.45-2.19-7.04-2c-0.92,0.07-1.37,0.74-1.04,1.61c0.32,0.84,0.98,1.43,1.61,2.02c3.15,2.93,6.49,5.68,8.65,9.51
			c0.85,1.51,2.02,2.87,2.3,4.66c0.17,1.05-0.1,1.39-1.13,1.58c-1.31,0.24-2.61,0.56-3.92,0.83c-1.45,0.3-2.88,0.92-4.39,0.63
			c-1.47-0.28-2.91,0.09-4.37,0.03c-1.15-0.05-2.28,0.23-3.41,0.34c-1.85,0.17-3.74,0.59-5.63-0.29c-1.09-0.51-2.26-0.94-3.42-1.36
			c-3.45-1.23-6.82-2.63-10.03-4.42c-0.99-0.55-1.75-1.12-1.9-2.47c-0.11-0.93,0-1.79,0.1-2.66c0.28-2.63,0.96-5.09,2.88-7.11
			c1.14-1.2,2.28-2.4,3.43-3.59c0.44-0.45,0.71-1.04,0.39-1.61c-0.3-0.54-0.96-0.77-1.54-0.64c-0.41,0.09-0.85,0.19-1.28,0.36
			c-2.52,1.01-4.94,2.15-7.13,3.82c-1.84,1.41-3.29,3.1-4.39,5.07c-1.11,1.98-1.35,4.27-1.51,6.48c-0.33,4.72,0.77,9.02,4.37,12.39
			c0.84,0.79,1.68,1.58,2.08,2.71c0.44,1.27,1.36,2.12,2.43,2.88c1.27,0.91,2.6,1.78,3.38,3.2c0.14,0.25,0.54,0.61,0.13,0.91
			c-0.28,0.21-0.65,0.37-1.07,0.21c-0.6-0.24-1.23-0.39-1.81-0.7c-2.38-1.28-4.84-2.37-7.48-3.02c-2.11-0.52-3.3,0.41-3.36,2.57
			c-0.04,1.74,0.66,3.3,1.12,4.91c0.29,1.01,0.21,1.9-0.35,2.66c-2.13,2.85-4.41,5.57-7.55,7.39c-0.36,0.21-0.89,0.45-0.83,0.94
			c0.06,0.53,0.62,0.74,1.08,0.85c1.83,0.45,3.65,0.64,5.52,0.04c1.41-0.45,2.9-0.69,4.4-0.67c0.95,0.02,1.89,0.32,2.3,1.17
			c0.41,0.85-0.44,1.38-0.97,1.9c-1.35,1.33-2.6,2.75-3.79,4.23c-1.97,2.45-3.46,5.18-4.67,8.08c-0.92,2.2-1.9,4.38-3.19,6.42
			c-0.55,0.87-1.44,1.42-1.94,2.31c-0.25,0.45-0.71,0.88-0.36,1.4c0.35,0.52,1.04,0.37,1.47,0.2c0.97-0.39,1.96-0.85,2.79-1.47
			c1.24-0.93,2.53-1.78,3.81-2.66c0.4-0.28,0.92-0.47,1.38-0.17c0.57,0.38,0.21,0.94,0.01,1.32c-0.74,1.47-1.15,3.06-1.68,4.6
			c-0.61,1.75-0.49,3.65-0.93,5.39c-0.84,3.36-0.19,6.65,0.19,9.9c0.38,3.22,1.58,6.35,2.45,9.51c0.54,1.96,1.22,3.9,1.05,5.99
			c-0.04,0.47,0.07,1.03,0.35,1.24c0.43,0.32,0.69-0.3,1.01-0.53c1.22-0.86,1.5-0.75,1.83,0.72c0.01,0.03-0.01,0.07,0,0.11
			c0.56,2.15,0.77,4.39,1.71,6.43c0.57,1.25,1.29,2.12,2.97,2.1C155.42,350.41,165.25,350.44,175.08,350.44z"/>
	</g>
</g>
<linearGradient id="SVGID_00000026126280707998896620000000188167481802606487_" gradientUnits="userSpaceOnUse" x1="130.2336" y1="336.4523" x2="213.1827" y2="253.5031">
	<stop  offset="0" style="stop-color:#3357A4"/>
	<stop  offset="1" style="stop-color:#E62439"/>
</linearGradient>
<path style="fill:url(#SVGID_00000026126280707998896620000000188167481802606487_);" d="M175.08,350.44
	c-9.83,0-19.66-0.03-29.49,0.03c-1.67,0.01-2.4-0.85-2.97-2.1c-0.94-2.04-1.15-4.28-1.71-6.43c-0.01-0.03,0-0.07,0-0.11
	c-0.33-1.47-0.61-1.58-1.83-0.72c-0.33,0.23-0.59,0.85-1.01,0.53c-0.28-0.21-0.39-0.77-0.35-1.24c0.16-2.08-0.51-4.02-1.05-5.99
	c-0.87-3.16-2.07-6.29-2.45-9.51c-0.38-3.24-1.04-6.53-0.19-9.9c0.44-1.74,0.32-3.64,0.93-5.39c0.53-1.54,0.94-3.13,1.68-4.6
	c0.19-0.38,0.56-0.94-0.01-1.32c-0.45-0.3-0.97-0.1-1.38,0.17c-1.27,0.88-2.56,1.73-3.81,2.66c-0.83,0.62-1.82,1.08-2.79,1.47
	c-0.43,0.17-1.11,0.32-1.47-0.2c-0.35-0.52,0.11-0.95,0.36-1.4c0.51-0.9,1.39-1.45,1.94-2.31c1.29-2.03,2.27-4.21,3.19-6.42
	c1.21-2.9,2.7-5.63,4.67-8.08c1.19-1.47,2.43-2.9,3.79-4.23c0.54-0.53,1.39-1.05,0.97-1.9c-0.41-0.85-1.34-1.15-2.3-1.17
	c-1.5-0.02-2.99,0.22-4.4,0.67c-1.87,0.59-3.69,0.41-5.52-0.04c-0.46-0.11-1.02-0.32-1.08-0.85c-0.06-0.49,0.48-0.73,0.83-0.94
	c3.15-1.83,5.43-4.54,7.55-7.39c0.56-0.76,0.65-1.65,0.35-2.66c-0.46-1.61-1.16-3.17-1.12-4.91c0.05-2.16,1.24-3.08,3.36-2.57
	c2.64,0.65,5.1,1.75,7.48,3.02c0.58,0.31,1.21,0.47,1.81,0.7c0.42,0.17,0.79,0.01,1.07-0.21c0.41-0.3,0.01-0.66-0.13-0.91
	c-0.78-1.42-2.1-2.3-3.38-3.2c-1.07-0.76-1.99-1.61-2.43-2.88c-0.39-1.13-1.24-1.92-2.08-2.71c-3.6-3.38-4.7-7.67-4.37-12.39
	c0.15-2.21,0.4-4.49,1.51-6.48c1.1-1.97,2.54-3.66,4.39-5.07c2.19-1.68,4.61-2.81,7.13-3.82c0.42-0.17,0.86-0.26,1.28-0.36
	c0.58-0.13,1.24,0.1,1.54,0.64c0.32,0.57,0.05,1.16-0.39,1.61c-1.15,1.19-2.29,2.39-3.43,3.59c-1.92,2.02-2.6,4.48-2.88,7.11
	c-0.09,0.87-0.2,1.73-0.1,2.66c0.15,1.35,0.91,1.92,1.9,2.47c3.2,1.79,6.58,3.19,10.03,4.42c1.16,0.41,2.32,0.85,3.42,1.36
	c1.89,0.88,3.78,0.46,5.63,0.29c1.13-0.11,2.26-0.38,3.41-0.34c1.46,0.06,2.89-0.31,4.37-0.03c1.51,0.29,2.94-0.33,4.39-0.63
	c1.31-0.27,2.61-0.59,3.92-0.83c1.03-0.19,1.3-0.54,1.13-1.58c-0.29-1.79-1.45-3.15-2.3-4.66c-2.15-3.83-5.5-6.58-8.65-9.51
	c-0.63-0.59-1.29-1.18-1.61-2.02c-0.33-0.87,0.12-1.54,1.04-1.61c2.59-0.19,4.85,0.73,7.04,2c2.15,1.24,4.19,2.63,6.15,4.16
	c1.46,1.14,2.57,2.56,3.67,4c1.45,1.89,2.91,3.77,4.21,5.76c1.48,2.27,2.5,4.78,3.01,7.46c0.23,1.21,0.81,2.24,1.56,3.2
	c0.18,0.23,0.37,0.55,0.77,0.47c0.39-0.08,0.39-0.39,0.46-0.72c0.13-0.62,0.83-0.78,1.38-0.32c1.3,1.1,1.97,2.53,2.23,4.19
	c0.2,1.26,0.41,2.51,0.68,3.75c0.15,0.69,0.7,0.69,1.22,0.45c0.77-0.37,1.55-0.74,2.26-1.21c1.73-1.15,3.63-1.73,5.69-1.89
	c0.99-0.08,1.98-0.33,2.96-0.5c0.64-0.11,1.16,0.09,1.7,0.13c2.24,0.17,4.38,0.77,6.32,1.97c0.26,0.16,0.44,0.46,0.68,0.66
	c0.27,0.22,0.25,0.52,0.17,0.77c-0.1,0.31-0.42,0.17-0.64,0.17c-1.77,0.01-3.55,0.04-5.32,0c-3.57-0.09-6.78,1-9.75,2.9
	c-0.25,0.16-0.58,0.28-0.74,0.66c-0.24,0.6-0.13,0.85,0.5,0.92c0.43,0.05,0.82-0.14,1.22-0.21c1.28-0.23,2.58-0.22,3.88-0.23
	c4.04-0.03,7.74,0.91,11.03,3.43c2.44,1.87,4.64,3.85,5.63,6.88c0.15,0.46,0.12,0.89,0.16,1.33c0.05,0.49,0.07,1.13-0.38,1.3
	c-0.57,0.21-1.04-0.32-1.38-0.76c-3.01-3.81-7.03-5.06-11.71-4.72c-0.13,0.01-0.27,0.06-0.39,0.12c-0.7,0.3-1.78,0.34-1.84,1.24
	c-0.05,0.81,0.92,1.14,1.59,1.45c1.14,0.52,1.94,1.37,2.42,2.46c0.57,1.3,1.43,2.49,1.49,4.01c0.04,1.18-0.35,2.08-1.19,2.87
	c-1.26,1.19-1.07,1.48,0.23,2.62c2.47,2.18,5.6,3.19,8.3,4.96c1.87,1.23,3.35,2.76,4.51,4.62c0.98,1.58,0.94,3.37,0.44,5.03
	c-0.78,2.61-1.72,5.18-2.76,7.7c-0.56,1.35-1.68,2.2-3.29,2.09c-0.81-0.06-1.58,0.21-2.39,0.25c-0.94,0.04-1.28,1.01-0.9,1.98
	c0.33,0.82,0.81,1.57,0.89,2.5c0.17,2.04-0.7,3.63-2.03,5.02c-0.41,0.43-0.74,0.9-0.72,1.43c0.03,1.4-0.87,2.1-1.9,2.62
	c-0.87,0.44-1.7,0.98-2.72,1.18c-0.53,0.1-1.12,0.26-1.54,0.1c-2.11-0.8-4.38-0.72-6.54-1.36c-2.79-0.84-5.35-2.24-8.12-3.11
	c-1.32-0.42-1.66-0.29-2.21,0.92c-0.42,0.92-0.69,1.85-0.65,2.89c0.07,2.39-0.23,4.82,0.85,7.1c1.24,2.61,2.52,5.19,4.5,7.34
	c0.78,0.85,1.63,1.62,2.12,2.69c0.39,0.85,0.15,1.32-0.77,1.45c-0.28,0.04-0.57,0.01-0.85,0.01
	C194.81,350.44,184.95,350.44,175.08,350.44z"/>
<linearGradient id="SVGID_00000040561365305235733880000006655807282917839009_" gradientUnits="userSpaceOnUse" x1="329.4143" y1="266.0011" x2="785.7933" y2="266.0011">
	<stop  offset="0.2562" style="stop-color:#E62439"/>
	<stop  offset="0.7072" style="stop-color:#3357A4"/>
</linearGradient>
<linearGradient id="SVGID_00000156569492377641059580000008934679944337550238_" gradientUnits="userSpaceOnUse" x1="557.6505" y1="329.8116" x2="557.6505" y2="201.5771">
	<stop  offset="0.2562" style="stop-color:#E62439"/>
	<stop  offset="0.7072" style="stop-color:#3357A4"/>
</linearGradient>
<path style="fill:url(#SVGID_00000040561365305235733880000006655807282917839009_);stroke:url(#SVGID_00000156569492377641059580000008934679944337550238_);stroke-width:2.8346;stroke-miterlimit:10;" d="
	M388.29,236.56c-0.25,3.87-0.47,7.69-0.68,11.48c-0.21,3.79-0.47,7.61-0.8,11.48l-26.17,1.36v7.78h22.71l-1.23,19.13l-21.6,0.62
	l0.12,36.54l-31.23,0.62l1.98-88.99H388.29z M445.68,290.38l-2.59,27.4l-51.96,4.07c0.25-14.36,0.52-28.64,0.83-42.83
	c0.31-14.19,0.69-28.47,1.14-42.83h32.09c-0.95,9.01-1.85,18.01-2.72,27c-0.86,8.99-1.48,18.05-1.85,27.19
	c1.93,0.08,3.85,0.12,5.74,0.12c1.89,0,3.81,0,5.74,0c2.3,0,4.57-0.02,6.79-0.06C441.12,290.4,443.38,290.38,445.68,290.38z
	 M522.4,256.93c0,3.04-0.14,6.4-0.43,10.06c-0.29,3.66-0.76,7.45-1.42,11.36c-0.66,3.91-1.51,7.87-2.56,11.88
	c-1.05,4.01-2.36,7.87-3.92,11.57c-1.56,3.7-3.38,7.17-5.46,10.4c-2.08,3.23-4.46,6.05-7.16,8.45c-2.7,2.41-5.71,4.3-9.04,5.68
	c-3.33,1.38-7.04,2.07-11.11,2.07c-4.77,0-8.92-0.77-12.44-2.31c-3.52-1.54-6.53-3.62-9.04-6.23c-2.51-2.61-4.57-5.66-6.17-9.13
	c-1.6-3.48-2.86-7.16-3.76-11.05c-0.91-3.89-1.53-7.86-1.88-11.91c-0.35-4.05-0.52-7.95-0.52-11.69c0-5.76,0.29-11.51,0.86-17.25
	c0.58-5.74,1.4-11.47,2.47-17.19l28.88,1.11c-1.11,6.46-2.07,12.95-2.87,19.47c-0.8,6.52-1.2,13.07-1.2,19.66
	c0,0.7,0.03,1.74,0.09,3.12c0.06,1.38,0.17,2.92,0.34,4.63c0.16,1.71,0.4,3.46,0.71,5.25s0.73,3.43,1.27,4.91
	c0.53,1.48,1.18,2.7,1.94,3.64c0.76,0.95,1.66,1.42,2.68,1.42c1.19,0,2.26-0.57,3.21-1.7c0.95-1.13,1.78-2.64,2.5-4.54
	c0.72-1.89,1.35-4.07,1.88-6.54c0.53-2.47,0.99-5.04,1.36-7.71c0.37-2.67,0.67-5.35,0.89-8.02c0.23-2.67,0.41-5.16,0.56-7.47
	c0.14-2.3,0.24-4.34,0.28-6.11c0.04-1.77,0.06-3.09,0.06-3.95c0-3.21-0.05-6.41-0.15-9.6c-0.1-3.19-0.26-6.37-0.46-9.53h28.88
	C522.15,245.33,522.4,251.09,522.4,256.93z M585.78,236.56c-0.25,3.87-0.47,7.69-0.68,11.48c-0.21,3.79-0.47,7.61-0.8,11.48
	l-26.17,1.36v7.78h22.71l-1.23,19.13L558,288.4l0.12,36.54l-31.23,0.62l1.98-88.99H585.78z M647.37,236.56
	c-0.25,3.87-0.47,7.69-0.68,11.48c-0.21,3.79-0.47,7.61-0.8,11.48l-26.17,1.36v7.78h22.71l-1.23,19.13l-21.6,0.62l0.12,36.54
	l-31.23,0.62l1.98-88.99H647.37z M683.84,238.66l-6.79,84.05l-26.04,1.36v-83.68L683.84,238.66z M699.39,218.42
	c-4.9,2.67-9.67,5.38-14.32,8.12c-4.65,2.74-9.3,5.71-13.95,8.92l-7.9-8.64c0.82-0.99,1.81-2.09,2.96-3.3
	c1.15-1.21,2.38-2.46,3.67-3.73c1.3-1.27,2.64-2.56,4.04-3.86c1.4-1.3,2.76-2.54,4.07-3.73c3.13-2.84,6.4-5.7,9.81-8.58
	L699.39,218.42z M748.58,238.78l-3.46,26.04c-1.19-0.33-2.39-0.56-3.58-0.68c-1.19-0.12-2.39-0.19-3.58-0.19
	c-3.05,0-5.95,0.4-8.7,1.2c-2.76,0.8-5.19,2.03-7.31,3.67c-2.12,1.65-3.81,3.7-5.06,6.17c-1.26,2.47-1.88,5.37-1.88,8.7
	c0,2.14,0.34,3.99,1.02,5.55c0.68,1.56,1.64,2.86,2.87,3.89c1.23,1.03,2.69,1.79,4.38,2.28c1.69,0.49,3.54,0.74,5.55,0.74
	c1.52,0,3.11-0.16,4.75-0.49c1.65-0.33,3.27-0.76,4.88-1.3c1.6-0.53,3.17-1.15,4.69-1.85c1.52-0.7,2.92-1.42,4.2-2.16l-2.47,29.01
	c-1.6,0.82-3.34,1.55-5.21,2.19c-1.87,0.64-3.8,1.19-5.77,1.67c-1.98,0.47-3.95,0.83-5.92,1.08c-1.98,0.25-3.87,0.37-5.68,0.37
	c-5.23,0-10.1-0.97-14.63-2.9c-4.53-1.93-8.46-4.59-11.79-7.96c-3.33-3.37-5.96-7.35-7.87-11.94c-1.91-4.59-2.87-9.54-2.87-14.84
	c0-7.04,1.01-13.67,3.02-19.9c2.02-6.23,4.98-11.69,8.89-16.39c3.91-4.69,8.75-8.39,14.53-11.11c5.78-2.72,12.44-4.07,19.96-4.07
	c2.84,0,5.75,0.23,8.73,0.68C743.26,236.71,746.03,237.55,748.58,238.78z M785.79,238.66L779,322.72l-26.04,1.36v-83.68
	L785.79,238.66z"/>
<text transform="matrix(1 0 0 1 317.5331 376.1524)" class="st5 st6 st7 st8">Skvělá komunita čeká na tebe!</text>
</svg>
